<svg width="744" height="126" viewBox="0 0 744 126" fill="none" xmlns="http://www.w3.org/2000/svg">
<g clip-path="url(#clip0_1_3)">
<path d="M158.437 21.7642C154.624 14.16 148.455 7.9916 140.851 4.17887C132.509 -4.72249e-05 121.624 0 99.8433 0C95.4309 0 84.899 0 81.324 0C77.749 0 67.2011 0 62.8047 0C41.0647 0 30.1382 -4.72249e-05 21.7965 4.17887C14.1925 7.98921 8.02606 14.1585 4.2192 21.7642C0.032235 30.1059 0.0324707 40.992 0.0324707 62.7642C0.0324707 84.5364 0.032235 95.4306 4.2192 103.772C8.02606 111.378 14.1925 117.547 21.7965 121.358C30.1382 125.537 41.0325 125.537 62.8047 125.537C67.2172 125.537 77.749 125.537 81.324 125.537C84.899 125.537 95.447 125.537 99.8433 125.537C121.583 125.537 132.509 125.537 140.851 121.358C148.455 117.545 154.624 111.377 158.437 103.772C162.616 95.4306 162.616 84.5445 162.616 62.7642C162.616 40.9839 162.616 30.1059 158.437 21.7642Z" fill="#FFCEAA"/>
<path d="M184.79 77.0885V75.5667H202.255V76.6537C202.255 83.7071 206.49 87.3949 213.431 87.3949C218.205 87.3949 221.571 85.7845 223.197 83.055C223.865 81.8197 224.2 80.4326 224.172 79.029C224.203 77.8255 223.944 76.6321 223.415 75.5506C222.111 73.3846 219.293 71.6455 214.413 70.6712L204.968 68.8273C197.053 67.2169 191.191 63.7305 188.156 58.1908C186.217 54.715 185.241 50.7845 185.33 46.8055C185.209 42.5502 186.262 38.3439 188.373 34.6472C192.818 26.9496 201.82 22.3922 213.866 22.3922C231.58 22.3922 242.514 31.3942 242.514 47.4496V48.9714H224.937V47.8844C224.937 40.9437 220.814 37.256 213.761 37.256C208.986 37.256 205.62 38.8664 204.099 41.5959C203.353 42.8033 202.977 44.2032 203.019 45.6219C202.975 46.7905 203.236 47.9505 203.777 48.9875C205.081 51.2662 207.899 52.788 212.778 53.7623L222.111 55.6061C230.163 57.2165 236 60.9204 239.148 66.4601C241.059 69.9834 241.995 73.9523 241.862 77.9581C241.947 82.1929 240.937 86.3781 238.931 90.1084C234.374 97.814 225.372 102.259 213.326 102.259C195.636 102.275 184.79 93.1922 184.79 77.0885Z" fill="black"/>
<path d="M288.515 60.0672H262.257V81.3405C262.257 85.5678 264.101 87.5243 266.815 87.5243C270.18 87.5243 271.589 85.5677 271.589 80.5755V72.7652H288.499V81.0103C288.499 93.8935 279.932 101.945 266.581 101.945C252.587 101.945 245.429 94.7792 245.429 81.6545V38.4719L262.241 30.9836V46.4916H288.499L288.515 60.0672Z" fill="black"/>
<path d="M344.29 83.619C342.446 94.5777 332.462 101.953 318.894 101.953C308.483 101.953 300.673 98.3701 296.002 91.534C292.782 86.8719 291.01 80.9055 291.01 73.6345C291.01 66.3636 292.967 60.067 296.22 55.4049C300.995 48.5688 308.918 44.8811 318.137 44.8811C334.845 44.8811 344.177 55.4049 344.177 73.4171V77.7571H307.179C307.614 80.7927 308.371 83.2889 309.675 85.1327C311.519 87.7416 314.337 89.1587 318.572 89.1587C322.808 89.1587 326.165 87.3148 327.469 83.627L344.29 83.619ZM309.57 61.7016C308.392 63.4145 307.646 65.387 307.396 67.4507H328.122C327.904 60.832 324.434 57.3616 318.137 57.3616C316.457 57.2889 314.786 57.6499 313.286 58.4101C311.785 59.1702 310.505 60.3037 309.57 61.7016Z" fill="black"/>
<path d="M351.665 92.8386C348.299 87.9591 346.455 81.3403 346.455 73.4172C346.455 65.494 348.299 58.8754 351.665 53.9959C353.628 51.1246 356.276 48.7877 359.368 47.1963C362.461 45.605 365.902 44.8093 369.379 44.8811C378.704 44.8811 384.783 50.6302 387.899 60.7193H390.065L385.942 46.5076H402.851V100.327H385.942L390.065 86.107H387.899C384.751 96.2042 378.671 101.953 369.379 101.953C361.867 101.953 355.683 98.7004 351.665 92.8386ZM383.567 82.9669C385.177 80.6882 386.168 77.427 386.168 73.4172C386.273 70.0458 385.367 66.7201 383.567 63.8676C382.598 62.476 381.296 61.3497 379.78 60.5915C378.263 59.8333 376.581 59.4674 374.887 59.5276C373.175 59.4542 371.472 59.8135 369.935 60.572C368.398 61.3305 367.077 62.4639 366.094 63.8676C364.294 66.7201 363.388 70.0458 363.493 73.4172C363.493 77.4431 364.468 80.664 366.094 82.9669C367.077 84.3706 368.398 85.5039 369.935 86.2624C371.472 87.021 373.175 87.3801 374.887 87.3068C376.581 87.3669 378.263 87.0012 379.78 86.243C381.296 85.4848 382.598 84.3584 383.567 82.9669Z" fill="black"/>
<path d="M462.66 46.4914L441.395 70.792L462.12 100.31H443.456L430.573 81.1064L424.494 87.9424V100.31H407.674V24.3569H424.494V63.5292L420.372 71.2267H422.545L444.431 46.4914H462.66Z" fill="black"/>
<path d="M468.417 100.326L457.563 46.4914H474.142L480.978 85.0115L481.083 90.8652H483.256L483.361 85.0115L489.223 46.4914H512.871L518.628 85.0115L518.733 90.8652H520.899L521.012 85.0115L527.952 46.4914H544.556L533.597 100.31H507.992L502.243 62.0074L502.13 56.0409H499.964L499.747 62.0074L494.11 100.31L468.417 100.326Z" fill="black"/>
<path d="M548.275 92.8386C544.91 87.9591 543.066 81.3403 543.066 73.4172C543.066 65.494 544.91 58.8754 548.275 53.9959C550.238 51.1246 552.886 48.7877 555.979 47.1963C559.072 45.605 562.512 44.8093 565.99 44.8811C575.322 44.8811 581.393 50.6302 584.509 60.7193H586.683L582.561 46.5076H599.47V100.327H582.561L586.683 86.107H584.509C581.361 96.2042 575.29 101.953 565.99 101.953C558.469 101.953 552.285 98.7004 548.275 92.8386ZM580.169 82.9669C581.78 80.6882 582.778 77.427 582.778 73.4172C582.88 70.045 581.972 66.7192 580.169 63.8676C579.201 62.4755 577.899 61.3487 576.383 60.5905C574.866 59.8322 573.184 59.4667 571.489 59.5276C569.778 59.4548 568.076 59.8144 566.541 60.5729C565.006 61.3314 563.687 62.4645 562.705 63.8676C560.902 66.7192 559.993 70.045 560.096 73.4172C560.096 77.4431 561.078 80.664 562.705 82.9669C563.687 84.3699 565.006 85.5029 566.541 86.2615C568.076 87.02 569.778 87.3795 571.489 87.3068C573.184 87.3676 574.866 87.0022 576.383 86.244C577.899 85.4857 579.201 84.3589 580.169 82.9669Z" fill="black"/>
<path d="M604.365 100.326V24.373H621.185V100.326H604.365Z" fill="black"/>
<path d="M626.065 100.326V24.373H642.885V100.326H626.065Z" fill="black"/>
<path d="M698.54 83.619C696.696 94.5777 686.72 101.953 673.152 101.953C662.741 101.953 654.922 98.3701 650.26 91.534C647.039 86.8719 645.268 80.9055 645.268 73.6345C645.268 66.3636 647.225 60.067 650.478 55.4049C655.252 48.5688 663.176 44.8811 672.395 44.8811C689.103 44.8811 698.435 55.4049 698.435 73.4171V77.7571H661.396C661.831 80.7927 662.588 83.2889 663.892 85.1327C665.736 87.7416 668.554 89.1587 672.79 89.1587C677.025 89.1587 680.382 87.3148 681.687 83.627L698.54 83.619ZM663.82 61.7016C662.649 63.4176 661.906 65.3889 661.654 67.4507H682.38C682.162 60.832 678.692 57.3616 672.395 57.3616C670.714 57.2898 669.042 57.6513 667.54 58.4112C666.039 59.1712 664.757 60.3042 663.82 61.7016Z" fill="black"/>
<path d="M744.009 60.0672H717.751V81.3405C717.751 85.5678 719.595 87.5243 722.308 87.5243C725.666 87.5243 727.083 85.5677 727.083 80.5755V72.7652H743.992V81.0103C743.992 93.8935 735.417 101.945 722.075 101.945C708.073 101.945 700.915 94.7792 700.915 81.6545V38.4719L717.735 30.9836V46.4916H743.992L744.009 60.0672Z" fill="black"/>
<path d="M44.5431 85.5108C43.534 83.5304 41.998 81.8669 40.1043 80.7034C38.2105 79.5399 36.0324 78.9215 33.8098 78.9163H21.1441C19.8476 78.9226 18.5671 79.2007 17.3847 79.7325C16.2023 80.2643 15.1444 81.0381 14.2795 82.0039C13.4145 82.9697 12.7615 84.1062 12.3628 85.3399C11.9642 86.5735 11.8287 87.8771 11.9649 89.1664C12.3997 93.2487 13.1084 96.3487 14.292 98.7079C17.0263 104.132 21.4293 108.535 26.8532 111.269C30.8308 113.266 36.918 113.926 46.2985 114.144C47.6401 114.175 48.9668 113.858 50.1488 113.222C51.3307 112.587 52.3273 111.655 53.0409 110.519C53.7544 109.382 54.1604 108.08 54.2192 106.739C54.278 105.398 53.9876 104.065 53.3762 102.871L44.5431 85.5108Z" fill="#FF3B9A"/>
<path d="M27.4088 68.4496C31.5791 68.4492 35.6879 67.4434 39.3868 65.5175C43.0858 63.5916 46.2657 60.8024 48.6576 57.3863L60.9368 39.8571C63.1517 36.6946 64.5418 33.029 64.9805 29.193C65.4192 25.3571 64.8927 21.4723 63.4491 17.8914V17.7867C62.7689 16.0576 61.6378 14.5422 60.1737 13.3981C58.7095 12.2539 56.9659 11.5229 55.1235 11.2808C40.5576 11.3291 31.9741 11.6914 26.8611 14.26C21.4259 16.9746 17.0182 21.3796 14.3 26.813C12.1018 31.2738 11.4254 43.8107 11.2644 53.9722C11.2312 55.865 11.5756 57.7454 12.2776 59.5035C12.9795 61.2617 14.0252 62.8622 15.3529 64.2116C16.6806 65.5611 18.2638 66.6323 20.0103 67.3627C21.7568 68.0932 23.6313 68.4682 25.5244 68.4657L27.4088 68.4496Z" fill="#FF3B9A"/>
<path d="M148.356 26.8129C145.625 21.3976 141.224 17.0048 135.803 14.2841C130.376 11.5626 121.06 11.3211 104.836 11.2969C82.854 11.2969 76.0182 36.5878 71.324 43.2869L57.5147 63.0059C55.2965 66.1733 53.9798 69.8833 53.7047 73.7404C53.4296 77.5975 54.2065 81.4568 55.9527 84.907L66.1866 105.149C67.5794 107.912 69.7184 110.23 72.3611 111.84C75.0039 113.449 78.045 114.286 81.1392 114.256H81.4207C85.036 114.256 96.18 114.256 99.8436 114.256C119.168 114.256 129.845 114.256 135.803 111.277C141.226 108.544 145.627 104.141 148.356 98.7159C151.343 92.7575 151.343 82.1049 151.343 62.7563C151.343 43.4077 151.343 32.8034 148.356 26.8129Z" fill="#FF3B9A"/>
</g>
<defs>
<clipPath id="clip0_1_3">
<rect width="744" height="125.545" fill="white"/>
</clipPath>
</defs>
</svg>
